<?xml version="1.0" encoding="UTF-8" standalone="no"?><!-- Generator: Gravit.io --><svg xmlns="http://www.w3.org/2000/svg" xmlns:xlink="http://www.w3.org/1999/xlink" style="isolation:isolate" viewBox="0 0 185.344 31.973" width="185.344pt" height="31.973pt"><defs><clipPath id="_clipPath_CHv2g3da20Fp5rqYIFOHktcE8yz0xYwB"><rect width="185.344" height="31.973"/></clipPath></defs><g clip-path="url(#_clipPath_CHv2g3da20Fp5rqYIFOHktcE8yz0xYwB)"><g><g clip-path="url(#_clipPath_rJ4f8BPGott7chxbFhS4eENPMHbWElB0)"><text transform="matrix(1,0,0,1,44,22.877)" style="font-family:'Original Surfer';font-weight:400;font-size:21px;font-style:normal;fill:#000000;stroke:none;">KopiShop</text></g><defs><clipPath id="_clipPath_rJ4f8BPGott7chxbFhS4eENPMHbWElB0"><rect x="0" y="0" width="112" height="26.271" transform="matrix(1,0,0,1,44,2)"/></clipPath></defs><g><g><path d="M 12.322 1 L 30.678 1 C 34.719 1 38 4.281 38 8.322 L 38 23.678 C 38 27.719 34.719 31 30.678 31 L 12.322 31 C 8.281 31 5 27.719 5 23.678 L 5 8.322 C 5 4.281 8.281 1 12.322 1 Z" style="stroke:none;fill:#FF5959;stroke-miterlimit:10;"/></g><g><g><mask id="_mask_6hqY769MBAV4qFT6riBKaax90rcfTjYk"><path d=" M 28.001 13.365 C 28.709 14.672 29.116 16.158 29.116 17.737 C 29.116 22.849 24.851 27 19.598 27 C 14.346 27 10.081 22.849 10.081 17.737 C 10.081 16.124 10.506 14.606 11.256 13.287" fill="white" stroke="none"/></mask><path d=" M 28.001 13.365 C 28.709 14.672 29.116 16.158 29.116 17.737 C 29.116 22.849 24.851 27 19.598 27 C 14.346 27 10.081 22.849 10.081 17.737 C 10.081 16.124 10.506 14.606 11.256 13.287" fill="rgb(255,255,255)"/><path d=" M 28.001 13.365 C 28.709 14.672 29.116 16.158 29.116 17.737 C 29.116 22.849 24.851 27 19.598 27 C 14.346 27 10.081 22.849 10.081 17.737 C 10.081 16.124 10.506 14.606 11.256 13.287" fill="rgb(255,255,255)" mask="url(#_mask_6hqY769MBAV4qFT6riBKaax90rcfTjYk)" vector-effect="non-scaling-stroke" stroke-width="2" stroke="rgb(221,234,80)" stroke-linejoin="miter" stroke-linecap="square" stroke-miterlimit="3"/><path d=" M 28.946 15.841 C 36.684 15.771 34.969 23.72 27.649 22.811" fill="none" vector-effect="non-scaling-stroke" stroke-width="1" stroke="rgb(221,234,80)" stroke-linejoin="miter" stroke-linecap="square" stroke-miterlimit="3"/><g><path d=" M 14.225 6.158 C 15.994 7.997 14.625 9.531 15.151 11.947" fill="none" vector-effect="non-scaling-stroke" stroke-width="1" stroke="rgb(0,0,0)" stroke-linejoin="miter" stroke-linecap="square" stroke-miterlimit="3"/><path d=" M 18.455 5 C 19.809 7.079 19.331 8.771 19.248 10.934" fill="none" vector-effect="non-scaling-stroke" stroke-width="1" stroke="rgb(0,0,0)" stroke-linejoin="miter" stroke-linecap="square" stroke-miterlimit="3"/><path d=" M 24.8 5 C 22.46 6.436 22.95 7.568 22.95 10.211" fill="none" vector-effect="non-scaling-stroke" stroke-width="1" stroke="rgb(0,0,0)" stroke-linejoin="miter" stroke-linecap="square" stroke-miterlimit="3"/></g></g><path d=" M 11 15 C 16 18.02 17.72 21.35 20.625 25.5" fill="none" vector-effect="non-scaling-stroke" stroke-width="1" stroke="rgb(206,244,148)" stroke-linejoin="miter" stroke-linecap="square" stroke-miterlimit="3"/><path d=" M 14 15 C 18.675 17.732 20.284 20.745 23 24.5" fill="none" vector-effect="non-scaling-stroke" stroke-width="1" stroke="rgb(206,244,148)" stroke-linejoin="miter" stroke-linecap="square" stroke-miterlimit="3"/><path d=" M 12 14 C 17 17.02 18.72 20.35 21.625 24.5" fill="none" vector-effect="non-scaling-stroke" stroke-width="1" stroke="rgb(255,186,186)" stroke-linejoin="miter" stroke-linecap="square" stroke-miterlimit="3"/></g></g></g></g></svg>