<?xml version="1.0" encoding="UTF-8" standalone="no"?><!-- Generator: Gravit.io --><svg xmlns="http://www.w3.org/2000/svg" xmlns:xlink="http://www.w3.org/1999/xlink" style="isolation:isolate" viewBox="0 0 604.354 494.83" width="604.354pt" height="494.83pt"><defs><clipPath id="_clipPath_6CzGiosza0pFTvRD5qp9jzyWsMo5cq7t"><rect width="604.354" height="494.83"/></clipPath></defs><g clip-path="url(#_clipPath_6CzGiosza0pFTvRD5qp9jzyWsMo5cq7t)"><path d=" M 329.352 462.953 C 206.094 450.42 104.073 360.112 59.37 244.999 C 14.667 129.886 182.974 31.827 304.2 26.209 C 425.426 20.591 519 128.299 519 250.973 C 519 373.647 452.611 475.486 329.352 462.953 Z " fill="rgb(255,229,210)"/><g><mask id="_mask_wd1JedCE1wXXQuPMeWpVvWRbqzSe9Ftw" x="-200%" y="-200%" width="400%" height="400%"><rect x="-200%" y="-200%" width="400%" height="400%" style="fill:white;"/><line x1="154" y1="209.614" x2="253" y2="209.614" fill="black" stroke="none"/></mask><line x1="154" y1="209.614" x2="253" y2="209.614" mask="url(#_mask_wd1JedCE1wXXQuPMeWpVvWRbqzSe9Ftw)" vector-effect="non-scaling-stroke" stroke-width="2" stroke="rgb(0,0,0)" stroke-linejoin="miter" stroke-linecap="butt" stroke-miterlimit="4"/><mask id="_mask_J7pWXJi9dR0DEh4TU6RuZlnssL3VfBBA" x="-200%" y="-200%" width="400%" height="400%"><rect x="-200%" y="-200%" width="400%" height="400%" style="fill:white;"/><line x1="165" y1="351" x2="242" y2="351" fill="black" stroke="none"/></mask><line x1="165" y1="351" x2="242" y2="351" mask="url(#_mask_J7pWXJi9dR0DEh4TU6RuZlnssL3VfBBA)" vector-effect="non-scaling-stroke" stroke-width="2" stroke="rgb(0,0,0)" stroke-linejoin="miter" stroke-linecap="butt" stroke-miterlimit="4"/><mask id="_mask_8oDdQH5qDx5fzrgu5WldpHfycJI2kErb" x="-200%" y="-200%" width="400%" height="400%"><rect x="-200%" y="-200%" width="400%" height="400%" style="fill:white;"/><line x1="253" y1="209.614" x2="242" y2="351" fill="black" stroke="none"/></mask><line x1="253" y1="209.614" x2="242" y2="351" mask="url(#_mask_8oDdQH5qDx5fzrgu5WldpHfycJI2kErb)" vector-effect="non-scaling-stroke" stroke-width="2" stroke="rgb(0,0,0)" stroke-linejoin="miter" stroke-linecap="butt" stroke-miterlimit="4"/><mask id="_mask_PWPGuVnoyhr3K0PYB5XiPIM13tQv1yzI" x="-200%" y="-200%" width="400%" height="400%"><rect x="-200%" y="-200%" width="400%" height="400%" style="fill:white;"/><line x1="247" y1="209.614" x2="236" y2="351" fill="black" stroke="none"/></mask><line x1="247" y1="209.614" x2="236" y2="351" mask="url(#_mask_PWPGuVnoyhr3K0PYB5XiPIM13tQv1yzI)" vector-effect="non-scaling-stroke" stroke-width="10" stroke="rgb(236,203,179)" stroke-linejoin="miter" stroke-linecap="butt" stroke-miterlimit="4"/><mask id="_mask_tNWEHzgnUmQtvv4LxWk4Mj8fs2SAQCUw" x="-200%" y="-200%" width="400%" height="400%"><rect x="-200%" y="-200%" width="400%" height="400%" style="fill:white;"/><line x1="154" y1="209.614" x2="165" y2="351" fill="black" stroke="none"/></mask><line x1="154" y1="209.614" x2="165" y2="351" mask="url(#_mask_tNWEHzgnUmQtvv4LxWk4Mj8fs2SAQCUw)" vector-effect="non-scaling-stroke" stroke-width="2" stroke="rgb(0,0,0)" stroke-linejoin="miter" stroke-linecap="butt" stroke-miterlimit="4"/><mask id="_mask_Dtbk5bPXbOmUTtDZmt8jBAiZKzPzOyk1" x="-200%" y="-200%" width="400%" height="400%"><rect x="-200%" y="-200%" width="400%" height="400%" style="fill:white;"/><line x1="251.625" y1="199.634" x2="253" y2="209.614" fill="black" stroke="none"/></mask><line x1="251.625" y1="199.634" x2="253" y2="209.614" mask="url(#_mask_Dtbk5bPXbOmUTtDZmt8jBAiZKzPzOyk1)" vector-effect="non-scaling-stroke" stroke-width="2" stroke="rgb(49,44,40)" stroke-linejoin="miter" stroke-linecap="butt" stroke-miterlimit="4"/><mask id="_mask_siHpz2kTmbpKaETtZk8tNGlaFoRyZArJ" x="-200%" y="-200%" width="400%" height="400%"><rect x="-200%" y="-200%" width="400%" height="400%" style="fill:white;"/><line x1="155.375" y1="199.634" x2="154" y2="209.614" fill="black" stroke="none"/></mask><line x1="155.375" y1="199.634" x2="154" y2="209.614" mask="url(#_mask_siHpz2kTmbpKaETtZk8tNGlaFoRyZArJ)" vector-effect="non-scaling-stroke" stroke-width="2" stroke="rgb(49,44,40)" stroke-linejoin="miter" stroke-linecap="butt" stroke-miterlimit="4"/><line x1="162.25" y1="199.634" x2="171.875" y2="183" vector-effect="non-scaling-stroke" stroke-width="1" stroke="rgb(0,0,0)" stroke-linejoin="miter" stroke-linecap="square" stroke-miterlimit="3"/><line x1="170.5" y1="183" x2="235.125" y2="183" vector-effect="non-scaling-stroke" stroke-width="1" stroke="rgb(0,0,0)" stroke-linejoin="miter" stroke-linecap="square" stroke-miterlimit="3"/><line x1="246.125" y1="199.634" x2="236.5" y2="183" vector-effect="non-scaling-stroke" stroke-width="1" stroke="rgb(0,0,0)" stroke-linejoin="miter" stroke-linecap="square" stroke-miterlimit="3"/><line x1="160.875" y1="199.634" x2="244.75" y2="199.634" vector-effect="non-scaling-stroke" stroke-width="1" stroke="rgb(0,0,0)" stroke-linejoin="miter" stroke-linecap="square" stroke-miterlimit="3"/><line x1="155.375" y1="199.634" x2="251.625" y2="199.634" vector-effect="non-scaling-stroke" stroke-width="1" stroke="rgb(0,0,0)" stroke-linejoin="miter" stroke-linecap="square" stroke-miterlimit="3"/></g></g></svg>